<?xml version="1.0" encoding="utf-8"?>
<!-- Generator: Adobe Illustrator 24.0.2, SVG Export Plug-In . SVG Version: 6.00 Build 0)  -->
<svg version="1.1" xmlns="http://www.w3.org/2000/svg" xmlns:xlink="http://www.w3.org/1999/xlink" x="0px" y="0px"
	 viewBox="0 0 106.28 109.32" style="enable-background:new 0 0 106.28 109.32;" xml:space="preserve">
<style type="text/css">
	.st0{display:none;}
	.st1{fill:#E9DEB6;}
	.st2{fill:none;}
	.st3{opacity:0.76;}
</style>
<g id="Слой_1" class="st0">
</g>
<g id="Слой_2">
	<g class="st3">
		<path d="M54.49,100.52l-1.6,3.83c-0.04,0.01-0.08,0.01-0.12,0.01C53.26,103.24,53.83,101.97,54.49,100.52z"/>
		<path d="M75.49,86.17v0.22c0,3.32-0.93,6.35-2.78,9.09c-1.86,2.74-4.64,4.91-8.35,6.51c-0.87,0.38-1.79,0.71-2.75,1
			c0,0-0.01,0-0.02,0c0.1-0.03,0.2-0.06,0.3-0.1c0.21-0.06,0.43-0.13,0.64-0.21c0.61-0.21,1.2-0.44,1.78-0.69
			c3.71-1.6,6.49-3.77,8.35-6.51c1.85-2.74,2.78-5.77,2.78-9.09v-0.18C75.46,86.2,75.47,86.18,75.49,86.17z"/>
		<path d="M72.46,77.18c-2.02-2.27-4.44-3.93-7.27-4.98c-2.82-1.06-6.44-2.11-10.87-3.16c-4.26-0.94-7.43-1.89-9.5-2.86
			c-2.08-0.97-3.12-2.45-3.12-4.44s0.9-3.6,2.7-4.82c1.8-1.21,4.58-1.82,8.34-1.82c5.37,0,10.74,1.52,16.11,4.56L73,49.45
			c-2.66-1.66-5.76-2.93-9.3-3.81c-3.54-0.89-7.17-1.33-10.87-1.33c-5.32,0-9.81,0.8-13.49,2.4c-3.68,1.61-6.43,3.78-8.26,6.52
			c-1.83,2.74-2.74,5.8-2.74,9.17c0,3.88,1.01,6.97,3.03,9.3c2.02,2.32,4.44,4.01,7.26,5.06c2.83,1.05,6.45,2.1,10.88,3.15
			c2.87,0.67,5.15,1.28,6.84,1.83s3.07,1.29,4.15,2.2s1.62,2.06,1.62,3.45c0,1.88-0.91,3.38-2.74,4.52c-1.82,1.13-4.64,1.7-8.46,1.7
			c-3.43,0-6.86-0.55-10.29-1.66c-3.44-1.11-6.39-2.57-8.88-4.4l-0.95,2.11l-0.3,0.67l-1.27,2.81l-0.74,1.64l-1.72,3.81
			c6.9,3.78,14.81,5.93,23.22,5.93c0.92,0,5.3-0.31,6.43-0.46c0.67-0.09,1.33-0.19,1.97-0.31c0.77-0.14,1.52-0.3,2.24-0.49
			c0.32-0.08,0.65-0.18,0.96-0.27c0.1-0.03,0.2-0.06,0.3-0.1c0.22-0.06,0.43-0.13,0.64-0.21c0.61-0.21,1.2-0.44,1.78-0.69
			c3.71-1.6,6.49-3.77,8.35-6.51c1.85-2.74,2.78-5.77,2.78-9.09v-0.18c0.02-0.01,0.03-0.03,0.05-0.04
			C75.45,82.4,74.44,79.4,72.46,77.18z M52.89,104.35c-0.04,0.01-0.08,0.01-0.12,0.01c0.49-1.12,1.06-2.39,1.72-3.84L52.89,104.35z"
			/>
		<path d="M52.77,104.36c0.49-1.12,1.06-2.39,1.72-3.84l-1.6,3.83C52.85,104.36,52.81,104.36,52.77,104.36z"/>
		<path d="M61.89,102.89c-0.09,0.03-0.18,0.06-0.28,0.1c0,0-0.01,0-0.02,0C61.69,102.96,61.79,102.93,61.89,102.89z"/>
		<path d="M101.49,57.02c0,22.72-15.7,41.84-36.82,47.08l-0.77,0.08c1.2-0.32,2.34-0.72,3.41-1.19c3.71-1.6,6.49-3.77,8.35-6.51
			c1.85-2.74,2.78-5.77,2.78-9.09v-0.18c0.02-0.01,0.03-0.03,0.05-0.04c8.56-7.26,14-18.08,14-30.15c0-21.78-17.72-39.5-39.5-39.5
			s-39.5,17.72-39.5,39.5c0,12.16,5.53,23.05,14.2,30.29l-3.97,8.34C12.05,86.79,4.49,72.77,4.49,57.02
			c0-26.74,21.76-48.5,48.5-48.5S101.49,30.28,101.49,57.02z"/>
	</g>
</g>
</svg>
