<svg id="Слой_2" data-name="Слой 2" xmlns="http://www.w3.org/2000/svg" viewBox="0 0 97 96"><defs><style>.cls-1{fill:#e9deb6;}.cls-2{fill:none;}</style></defs><title>logos</title><path class="cls-1" d="M54,98l-1.6,3.83h-.12C52.77,100.72,53.34,99.45,54,98Z" transform="translate(-4 -6)"/><path class="cls-1" d="M75,83.65v.22A15.9,15.9,0,0,1,72.22,93a18.68,18.68,0,0,1-8.35,6.51,24.76,24.76,0,0,1-2.75,1h0l.3-.1c.21-.06.43-.13.64-.21.61-.21,1.2-.44,1.78-.69A18.68,18.68,0,0,0,72.17,93,15.9,15.9,0,0,0,75,83.87v-.18Z" transform="translate(-4 -6)"/><path class="cls-1" d="M72,74.66a18,18,0,0,0-7.27-5,92.17,92.17,0,0,0-10.87-3.16,48.6,48.6,0,0,1-9.5-2.86,4.71,4.71,0,0,1-3.12-4.44,5.59,5.59,0,0,1,2.7-4.82q2.7-1.82,8.34-1.82a32.45,32.45,0,0,1,16.11,4.56l4.15-10.21a32.05,32.05,0,0,0-9.3-3.81,44.45,44.45,0,0,0-10.87-1.33,33.77,33.77,0,0,0-13.49,2.4,18.49,18.49,0,0,0-8.26,6.52,16.15,16.15,0,0,0-2.74,9.17c0,3.88,1,7,3,9.3a17.69,17.69,0,0,0,7.26,5.06A95.2,95.2,0,0,0,49,77.39q4.31,1,6.84,1.83A12.25,12.25,0,0,1,60,81.42a4.32,4.32,0,0,1,1.62,3.45,5.14,5.14,0,0,1-2.74,4.52q-2.73,1.69-8.46,1.7a33.25,33.25,0,0,1-10.29-1.66A30.84,30.84,0,0,1,31.26,85l-1,2.11-.3.67-1.27,2.81L28,92.26l-1.72,3.81A48.18,48.18,0,0,0,49.5,102c.92,0,5.3-.31,6.43-.46.67-.09,1.33-.19,2-.31s1.52-.3,2.24-.49c.32-.08.65-.18,1-.27l.3-.1c.22-.06.43-.13.64-.21.61-.21,1.2-.44,1.78-.69A18.68,18.68,0,0,0,72.17,93,15.9,15.9,0,0,0,75,83.87v-.18l0,0Q74.94,78,72,74.66ZM52.4,101.83h-.12c.49-1.12,1.06-2.39,1.72-3.84Z" transform="translate(-4 -6)"/><path class="cls-1" d="M52.28,101.84c.49-1.12,1.06-2.39,1.72-3.84l-1.6,3.83Z" transform="translate(-4 -6)"/><path class="cls-1" d="M61.4,100.37l-.28.1h0Z" transform="translate(-4 -6)"/><path class="cls-1" d="M101,54.5a48.59,48.59,0,0,1-36.82,47.08l-.77.08a23.6,23.6,0,0,0,3.41-1.19A18.68,18.68,0,0,0,75.17,94,15.9,15.9,0,0,0,78,84.87v-.18l0,0a39.52,39.52,0,1,0-50.8.14l-4,8.34A48.49,48.49,0,1,1,101,54.5Z" transform="translate(-4 -6)"/><polyline class="cls-2" points="52 97 52 97 52 97 52 97 52 97"/><line class="cls-2" x1="23.2" y1="78.79" x2="19.23" y2="87.13"/></svg>